<?xml version="1.0" encoding="utf-8"?>
<!-- Generator: Adobe Illustrator 23.0.6, SVG Export Plug-In . SVG Version: 6.00 Build 0)  -->
<svg version="1.1" id="Layer_1" xmlns="http://www.w3.org/2000/svg" xmlns:xlink="http://www.w3.org/1999/xlink" x="0px" y="0px"
	 viewBox="0 0 358.87 333.06" style="enable-background:new 0 0 358.87 333.06;" xml:space="preserve">
<g>
	<path d="M178.08,292.32l-1.12,0c-30.16-30.16-64.09-28.56-87.24-21.91c-25.16,7.23-43.41,21.81-43.6,21.96l-1.07,0.86V75.8
		l0.19-0.19C76.6,44.26,111,45.93,134.34,52.85c25.24,7.48,43.32,22.57,43.5,22.72l0.23,0.2V292.32z M46.37,76.35v214.18
		c4.28-3.21,21.02-15.06,42.95-21.37c23.21-6.68,57.11-8.35,87.45,21.13V76.38c-2.18-1.77-19.39-15.35-42.83-22.29
		C110.99,47.3,77.2,45.66,46.37,76.35z"/>
	<path d="M176.76,292.08V75.77l0.23-0.2c0.18-0.15,18.26-15.24,43.5-22.72c23.34-6.92,57.75-8.59,89.1,22.76l0.19,0.19v217.42
		l-1.07-0.86c-0.18-0.15-18.43-14.73-43.59-21.96c-23.15-6.65-56.89-8.25-87.05,21.91L176.76,292.08z M237.92,265.1
		c10.1,0,19.5,1.72,27.6,4.05c21.93,6.31,38.67,18.15,42.95,21.37V76.35c-30.83-30.68-64.62-29.04-87.57-22.25
		c-23.44,6.94-40.65,20.51-42.83,22.29v213.9C197.83,271.09,219.09,265.1,237.92,265.1z"/>
</g>
</svg>
