<?xml version="1.0" encoding="utf-8"?>
<!-- Generator: Adobe Illustrator 23.1.1, SVG Export Plug-In . SVG Version: 6.00 Build 0)  -->
<svg version="1.1" id="Layer_1" xmlns="http://www.w3.org/2000/svg" xmlns:xlink="http://www.w3.org/1999/xlink" x="0px" y="0px"
	 viewBox="0 0 45.2 49.8" style="enable-background:new 0 0 45.2 49.8;" xml:space="preserve">
<style type="text/css">
	.st0{fill:#223F39;}
</style>
<path class="st0" d="M22.1,49.8h1c0-7.7,2.2-13.4,6.4-17c6-5.1,14.5-4.3,15.7-4.2v-1c-1.1-0.1-9.9-1.1-16.4,4.4
	c-2.5,2.1-4.3,4.9-5.4,8.3c0,0.1-0.1,0.1-0.2,0.1s-0.1-0.1-0.1-0.2V0h-1v40.3c0,0.1-0.1,0.2-0.1,0.2c-0.1,0-0.2,0-0.2-0.1
	c-1.1-3.5-2.9-6.3-5.4-8.4C9.9,26.5,1.1,27.4,0,27.6v1c1.2-0.1,9.7-1,15.7,4.2C19.9,36.4,22,42.1,22.1,49.8z"/>
</svg>
