<?xml version="1.0" encoding="utf-8"?>
<!-- Generator: Adobe Illustrator 23.0.6, SVG Export Plug-In . SVG Version: 6.00 Build 0)  -->
<svg version="1.1" id="Layer_1" xmlns="http://www.w3.org/2000/svg" xmlns:xlink="http://www.w3.org/1999/xlink" x="0px" y="0px"
	 viewBox="0 0 50 45.4" style="enable-background:new 0 0 50 45.4;" xml:space="preserve">
<style type="text/css">
	.st0{fill:#223F39;}
</style>
<path class="st0" d="M0.1,22.2v1c7.7,0,13.4,2.2,17,6.4c5.1,6,4.3,14.5,4.2,15.7h1c0.1-1.1,1.1-9.9-4.4-16.4
	c-2.1-2.5-4.9-4.3-8.3-5.4c-0.1,0-0.1-0.1-0.1-0.2c0-0.1,0.1-0.1,0.2-0.1h40.2v-1H9.5c-0.1,0-0.2-0.1-0.2-0.1c0-0.1,0-0.2,0.1-0.2
	c3.5-1.1,6.3-2.9,8.4-5.4c5.5-6.5,4.6-15.3,4.4-16.4h-1c0.1,1.2,1,9.7-4.2,15.7C13.5,20,7.8,22.1,0.1,22.2z"/>
</svg>
