<?xml version="1.0" encoding="utf-8"?>
<!-- Generator: Adobe Illustrator 23.0.6, SVG Export Plug-In . SVG Version: 6.00 Build 0)  -->
<svg version="1.1" id="Layer_1" xmlns="http://www.w3.org/2000/svg" xmlns:xlink="http://www.w3.org/1999/xlink" x="0px" y="0px"
	 viewBox="0 0 206.1 206.1" style="enable-background:new 0 0 206.1 206.1;" xml:space="preserve">
<style type="text/css">
	.st0{fill:#143C34;}
</style>
<path class="st0" d="M48.8,37.2C48.8,20.1,63,6,80.3,6c8.7,0,16.8,3.8,22.5,9.8c5.7-6,13.8-9.8,22.5-9.8c17.4,0,31.5,14.1,31.5,31.2
	v7.1h-17.4v-7.1c0-7.6-6.2-13.8-14.1-13.8c-7.6,0-13.8,6.2-13.8,13.8v52.3H94.2V37.2c0-7.6-6.2-13.8-13.8-13.8
	c-7.9,0-14.1,6.2-14.1,13.8v7.1H48.8V37.2z M134.7,94.4v17.4H71.3V94.4h18.1H134.7z M5.7,125.5c0-8.7,3.8-16.8,9.8-22.5
	c-6-5.7-9.8-13.8-9.8-22.5C5.7,63.1,19.8,49,36.9,49h52.6v17.4H36.9c-7.6,0-13.8,6.2-13.8,14.1c0,7.6,6.2,13.8,13.8,13.8h7.3v17.4
	h-7.3c-7.6,0-13.8,6.2-13.8,13.8c0,7.9,6.2,14.1,13.8,14.1h52.6V157H36.9C19.8,157,5.7,142.8,5.7,125.5z M66.2,71.1v63.8H48.8v-18.4
	h0V71.1H66.2z M156.9,168.8c0,17.1-14.1,31.2-31.5,31.2c-8.7,0-16.8-3.8-22.5-9.8c-5.7,6-13.8,9.8-22.5,9.8
	c-17.4,0-31.5-14.1-31.5-31.2v-7.1h17.4v7.1c0,7.6,6.2,13.8,14.1,13.8c7.6,0,13.8-6.2,13.8-13.8v-52.3h17.4v52.3
	c0,7.6,6.2,13.8,13.8,13.8c7.9,0,14.1-6.2,14.1-13.8v-7.1h17.4V168.8z M200.1,125.6c0,17.4-14.1,31.5-31.2,31.5h-52.6v-17.4h52.6
	c7.6,0,13.8-6.2,13.8-14.1c0-7.6-6.2-13.8-13.8-13.8h-7.3V94.4h7.3c7.6,0,13.8-6.2,13.8-13.8c0-7.9-6.2-14.1-13.8-14.1h-52.6V49
	h52.6c17.1,0,31.2,14.1,31.2,31.5c0,8.7-3.8,16.8-9.8,22.5C196.3,108.8,200.1,116.9,200.1,125.6z M156.8,116.5v18.4h-17.4v-18.4h0
	V71.1h17.4L156.8,116.5L156.8,116.5z"/>
</svg>
