<?xml version="1.0" encoding="utf-8"?>
<!-- Generator: Adobe Illustrator 23.0.6, SVG Export Plug-In . SVG Version: 6.00 Build 0)  -->
<svg version="1.1" id="Layer_1" xmlns="http://www.w3.org/2000/svg" xmlns:xlink="http://www.w3.org/1999/xlink" x="0px" y="0px"
	 viewBox="0 0 78.2 78.2" style="enable-background:new 0 0 78.2 78.2;" xml:space="preserve">
<style type="text/css">
	.st0{fill:#C1FE38;}
	.st1{fill:#173B33;}
</style>
<circle class="st0" cx="39.1" cy="39.1" r="38.3"/>
<g>
	<path class="st1" d="M7.4,29.5c0-0.1,0-0.1,0.1-0.1c1.5,0,2.5,0,3.1-0.1c0.6,0,1-0.1,1.1-0.1c0.1,0,0.2,0.1,0.3,0.2
		c0.1,0.2,0.2,0.4,0.4,0.7s0.4,0.5,0.6,0.8l11.6,14.4v-8.7c0-1.7-0.1-3-0.3-4c-0.2-0.9-0.5-1.6-0.8-2.1c-0.3-0.4-0.7-0.7-1-0.8
		s-0.7-0.1-1.1-0.1h-0.4c-0.1,0-0.2,0-0.2-0.1c0-0.1,0.1-0.1,0.2-0.1c0.2,0,0.5,0,0.9,0c0.4,0,0.8,0,1.1,0c0.4,0,0.7,0,1.1,0
		c0.3,0,0.5,0,0.7,0c0.2,0,0.5,0,0.9,0c0.4,0,0.8,0,1.2,0c0.1,0,0.2,0,0.2,0.1c0,0.1-0.1,0.1-0.2,0.1h-0.2c-0.3,0-0.6,0-0.9,0.1
		s-0.4,0.4-0.6,0.8c-0.1,0.4-0.2,1.1-0.3,2.1c-0.1,0.9-0.1,2.3-0.1,4v11.9c0,0.2-0.1,0.3-0.2,0.3c-0.1,0-0.2-0.1-0.3-0.2
		c-0.1-0.1-0.3-0.3-0.4-0.4L10.7,31.5l0,10.1c0,1.7,0.1,3,0.3,4s0.4,1.6,0.7,2.1c0.3,0.4,0.6,0.7,0.9,0.8c0.3,0.1,0.7,0.1,1,0.1H14
		c0.1,0,0.1,0,0.1,0.1s0,0.1-0.1,0.1c-0.2,0-0.5,0-0.9,0s-0.7,0-1.1,0c-0.4,0-0.7,0-1.1,0c-0.3,0-0.5,0-0.6,0c-0.2,0-0.5,0-1,0
		s-0.9,0-1.3,0c-0.1,0-0.1,0-0.2-0.1s0-0.1,0.2-0.1h0.2c0.3,0,0.6-0.1,0.9-0.2s0.5-0.4,0.6-0.9c0.2-0.5,0.3-1.1,0.4-2.1
		c0.1-0.9,0.2-2.2,0.2-3.9l0-10c0-0.1,0-0.2-0.1-0.4s-0.2-0.3-0.3-0.5c-0.3-0.3-0.6-0.6-1-0.7s-0.7-0.3-1.2-0.3H7.5
		C7.4,29.6,7.4,29.6,7.4,29.5z"/>
	<path class="st1" d="M28.1,48.7c0-0.1,0.1-0.1,0.2-0.1c0.4,0,0.7,0,1-0.1c0.2-0.1,0.4-0.2,0.6-0.4c0.1-0.2,0.3-0.6,0.3-1.1
		s0.1-1.2,0.2-2.1c0-0.5,0.1-1,0.1-1.7c0-0.7,0-1.4,0-2.1c0-0.7,0-1.5,0-2.2s0-1.5,0-2.1c0-1.7,0-3-0.1-4c0-0.9-0.1-1.6-0.2-2.1
		c-0.1-0.4-0.3-0.7-0.5-0.8c-0.2-0.1-0.5-0.1-0.8-0.1h-0.5c-0.1,0-0.2,0-0.2-0.1c0-0.1,0.1-0.1,0.2-0.1c0.2,0,0.4,0,0.8,0
		c0.3,0,0.6,0,0.9,0c0.3,0,0.6,0,0.8,0c0.3,0,0.4,0,0.5,0c0.1,0,0.3,0,0.8,0s1,0,1.7,0c0.7,0,1.4,0,2.2,0c0.8,0,1.5,0,2.2,0
		c0.7,0,1.3,0,1.9,0s0.9,0,1,0c0.3,0,0.5,0,0.8,0c0.3,0,0.4,0,0.5,0.1c0.1,0,0.2,0.5,0.3,1.5s0.3,2.2,0.5,3.7l0.1,1
		c0,0.1,0,0.1-0.1,0.1c-0.1,0-0.2,0-0.2-0.1l-0.1-1c-0.3-1.6-0.9-2.8-1.9-3.6c-1-0.8-2.4-1.3-4-1.3h-3.6c-0.3,0-0.6,0-0.7,0.1
		c-0.2,0.1-0.3,0.3-0.3,0.8c0,0.4-0.1,0.9-0.1,1.7c0,0.1,0,0.3,0,0.4c0,0.9,0,2.3,0,4v1.9H35c0.9,0,1.6-0.1,2.1-0.2s1-0.4,1.3-0.7
		c0.3-0.3,0.5-0.6,0.6-1c0.1-0.4,0.2-0.8,0.2-1.3v-0.6c0-0.1,0-0.2,0.1-0.2c0.1,0,0.1,0.1,0.1,0.2c0,0.2,0,0.5,0,0.9
		c0,0.4,0,0.8,0,1.2c0,0.4,0,0.8,0,1.1s0,0.6,0,0.7c0,0.1,0,0.3,0,0.7s0,0.8,0,1.2c0,0.4,0,0.8,0,1.2c0,0.4,0,0.6,0,0.7
		s0,0.2-0.1,0.2c-0.1,0-0.1-0.1-0.1-0.2v-0.4c0-0.5-0.1-0.9-0.2-1.3s-0.3-0.7-0.6-1c-0.3-0.3-0.8-0.5-1.3-0.7
		c-0.6-0.2-1.3-0.2-2.1-0.2h-2.3v5.4c0,1.1,0,2-0.1,2.7c0,0.7-0.1,1.2-0.1,1.4c0.2,0,0.6,0,1.1,0c0.5,0,1,0,1.6,0c0.6,0,1.1,0,1.6,0
		s0.9,0,1.1,0c0.8,0,1.5-0.2,2.2-0.5c0.7-0.3,1.3-0.7,1.8-1.3c0.5-0.5,0.9-1.1,1.2-1.8s0.5-1.4,0.6-2.1l0.2-1.5
		c0-0.1,0.1-0.1,0.2-0.1c0.1,0,0.2,0.1,0.2,0.2L44,42.9c-0.1,1.1-0.3,2.1-0.3,2.8c-0.1,0.7-0.2,1.3-0.2,1.7
		c-0.1,0.4-0.1,0.7-0.1,0.9c0,0.2-0.1,0.3-0.2,0.3c0,0-0.2,0.1-0.4,0.1s-0.5,0-0.8,0c-0.4,0-0.7,0-1.2,0s-0.9,0-1.4,0
		c-0.2,0-0.5,0-0.9,0c-0.3,0-0.7,0-1.1,0s-0.8,0-1.2,0c-0.4,0-0.8,0-1.2,0c-0.9,0-1.8,0-2.8-0.1l-3.9,0.1
		C28.2,48.8,28.1,48.7,28.1,48.7z"/>
	<path class="st1" d="M44.7,29.6c0-0.1,0-0.1,0.1-0.1c0.2,0,0.4,0,0.7,0c0.2,0,0.5,0,0.8,0c0.2,0,0.5,0,0.7,0c0.2,0,0.4,0,0.5,0
		c0.1,0,0.3,0,0.7,0c0.3,0,0.7,0,1.1,0c0.4,0,0.8,0,1.2,0c0.4,0,0.7,0,0.9,0c0.1,0,0.2,0,0.2,0.1c0,0.1,0,0.1-0.1,0.1h-0.7
		c-0.4,0-0.7,0.1-0.9,0.2c-0.2,0.1-0.3,0.3-0.3,0.6c0,0.3,0.2,0.9,0.5,1.9c0.3,1,0.8,2.4,1.6,4.3l3.6,9.4c0,0.1,0.1,0.1,0.2,0.2
		c0,0,0.1,0,0.1-0.2l3.2-7.1l-2.2-5.1c-0.4-1-0.8-1.8-1.1-2.4c-0.3-0.6-0.5-1-0.7-1.3c-0.2-0.3-0.4-0.4-0.7-0.5
		c-0.2-0.1-0.5-0.1-0.9-0.1h-0.2c-0.1,0-0.2,0-0.2-0.1c0-0.1,0.1-0.1,0.2-0.1c0.2,0,0.4,0,0.7,0c0.3,0,0.5,0,0.8,0
		c0.3,0,0.5,0,0.7,0c0.2,0,0.4,0,0.5,0c0.1,0,0.3,0,0.6,0c0.3,0,0.5,0,0.9,0c0.3,0,0.6,0,0.9,0c0.3,0,0.6,0,0.8,0
		c0.1,0,0.2,0,0.2,0.1c0,0.1-0.1,0.1-0.2,0.1h-0.2c-0.3,0-0.5,0-0.7,0.1s-0.3,0.3-0.3,0.6c0,0.1,0,0.3,0,0.4c0,0.2,0.1,0.4,0.1,0.7
		s0.2,0.6,0.3,1.1c0.2,0.4,0.4,1,0.6,1.7l1.2,2.8l1.1-2.8c0.3-0.6,0.5-1.2,0.6-1.8c0.1-0.6,0.2-1.1,0.2-1.4c0-0.4-0.1-0.8-0.3-1
		c-0.2-0.2-0.4-0.3-0.7-0.3c-0.1,0-0.2,0-0.4,0s-0.2,0-0.3,0c-0.1,0-0.2,0-0.2-0.1c0,0,0-0.1,0-0.1c0,0,0.1-0.1,0.3-0.1
		c0.1,0,0.3,0,0.6,0c0.2,0,0.5,0,0.8,0s0.5,0,0.8,0c0.2,0,0.4,0,0.5,0c0.1,0,0.3,0,0.5,0c0.2,0,0.5,0,0.8,0c0.3,0,0.6,0,0.9,0
		c0.3,0,0.5,0,0.7,0c0.1,0,0.2,0,0.2,0.1c0,0.1-0.1,0.1-0.2,0.1H65c-0.7,0-1.3,0.4-1.9,1.1c-0.6,0.7-1.2,1.9-1.8,3.6l-1.3,3.1
		l3.8,8.8c0,0.1,0.1,0.1,0.2,0.1c0,0,0.1,0,0.1-0.1l4.2-11.1c0.1-0.3,0.2-0.6,0.3-1c0.1-0.4,0.2-0.7,0.3-1.1
		c0.1-0.4,0.2-0.7,0.2-1.1c0.1-0.4,0.1-0.7,0.1-1c0-0.9-0.5-1.4-1.4-1.4c-0.1,0-0.3,0-0.4,0.1c-0.2,0-0.3,0.1-0.3,0.1
		c-0.1,0-0.2-0.1-0.2-0.2c0,0,0-0.1,0.1-0.1c0,0,0.1-0.1,0.3-0.1c0.1,0,0.3,0,0.6,0c0.3,0,0.6,0,0.9,0s0.6,0,0.9,0
		c0.3,0,0.5,0,0.6,0c0.1,0,0.2,0,0.4,0c0.2,0,0.4,0,0.6,0c0.2,0,0.5,0,0.7,0c0.2,0,0.4,0,0.6,0c0.1,0,0.2,0,0.2,0.1
		c0,0.1,0,0.1-0.2,0.1h-0.1c-0.7,0-1.3,0.5-1.9,1.4c-0.6,0.9-1.3,2.3-2,4.3l-5.2,13.5c0,0.1-0.1,0.1-0.2,0.1h-0.3
		c-0.1,0-0.1,0-0.1,0c0,0,0,0,0-0.1l-4-9.4l-4.2,9.3c0,0.1-0.1,0.1-0.2,0.1h-0.2c-0.1,0-0.2,0-0.2-0.1l-5.1-13.5
		c-0.5-1.3-0.9-2.4-1.3-3.1c-0.3-0.8-0.6-1.3-0.9-1.7c-0.3-0.4-0.5-0.6-0.8-0.7s-0.6-0.1-0.9-0.1h-0.1
		C44.7,29.7,44.7,29.6,44.7,29.6z"/>
</g>
</svg>
