<?xml version="1.0" encoding="utf-8"?>
<!-- Generator: Adobe Illustrator 23.0.6, SVG Export Plug-In . SVG Version: 6.00 Build 0)  -->
<svg version="1.1" id="Layer_1" xmlns="http://www.w3.org/2000/svg" xmlns:xlink="http://www.w3.org/1999/xlink" x="0px" y="0px"
	 viewBox="0 0 58.7 58.7" style="enable-background:new 0 0 58.7 58.7;" xml:space="preserve">
<style type="text/css">
	.st0{fill:#173B33;}
	.st1{fill:#AEFB00;}
</style>
<circle class="st0" cx="29.3" cy="29.3" r="29.3"/>
<path class="st1" d="M28.6,4.5c0,7.6-2.1,13.2-6.3,16.8c-6,5.1-14.6,4.2-15.5,4.1l-0.3,0v1.5l0.2,0c1,0.1,10,1.2,16.6-4.5
	c2.4-2,4.1-4.7,5.3-7.9v40h1.5v-40c1.1,3.3,2.9,6,5.3,8C42,28,51,27,52,26.9l0.2,0v-1.5l-0.3,0c-1,0.1-9.6,1-15.5-4.1
	c-4.1-3.5-6.2-9.2-6.3-16.8V4.2h-1.5L28.6,4.5z"/>
</svg>
